<svg width="28" height="28" viewBox="0 0 28 28" fill="none" xmlns="http://www.w3.org/2000/svg">
<circle cx="14" cy="14" r="14" fill="#FF0000"/>
<path d="M13.546 15.0815C13.9055 14.5798 13.9374 14.2118 13.9374 14C13.9374 13.7882 13.9055 13.4151 13.5407 12.9109C13.0054 12.0613 12.0707 11.0857 10.6967 9.93613C9.60226 9.02101 8.61699 8.32773 8.42793 8.19412L8.14832 8L6.5 10.1328L6.77694 10.3269C7.90334 11.1084 9.69546 12.5076 10.6781 13.6521C10.7792 13.7908 10.7952 13.9218 10.7952 14C10.7952 14.0807 10.7846 14.2143 10.6781 14.358C9.69546 15.5 7.90068 16.8966 6.77694 17.6756L6.5 17.8697L8.14566 20L8.42526 19.8059C8.47053 19.7756 9.52503 19.0445 10.694 18.0639C12.0761 16.9118 13.0107 15.9336 13.546 15.0815ZM21.5 14C21.5 13.7882 21.468 13.4151 21.1032 12.9109C20.568 12.0613 19.6333 11.0857 18.2593 9.93613C17.1648 9.02101 16.1796 8.32773 15.9905 8.19412L15.7109 8L14.0626 10.1328L14.3395 10.3269C15.4659 11.1084 17.2607 12.5076 18.2406 13.6521C18.3418 13.7908 18.3578 13.9218 18.3578 14C18.3578 14.0807 18.3472 14.2143 18.2406 14.358C17.258 15.5 15.4633 16.8966 14.3395 17.6756L14.0626 17.8697L15.7082 20L15.9878 19.8059C16.0331 19.7756 17.0876 19.0445 18.2566 18.0639C19.636 16.9118 20.5707 15.9311 21.1059 15.079C21.468 14.5798 21.5 14.2118 21.5 14Z" fill="white"/>
</svg>
