<svg width="295" height="252" viewBox="0 0 295 252" fill="none" xmlns="http://www.w3.org/2000/svg">
<g style="mix-blend-mode:soft-light">
<path d="M295 126C295 121.553 294.372 113.718 287.197 103.129C276.671 85.2883 258.289 64.8 231.266 40.6588C209.742 21.4412 190.365 6.88238 186.647 4.07649L181.148 0L148.731 44.7882L154.177 48.8647C176.33 65.2765 211.627 94.6589 230.899 118.694C232.89 121.606 233.204 124.359 233.204 126C233.204 127.694 232.994 130.5 230.899 133.518C211.575 157.5 176.278 186.829 154.177 203.188L148.731 207.265L181.096 252L186.594 247.924C187.485 247.288 208.223 231.935 231.214 211.341C258.341 187.147 276.723 166.553 287.249 148.659C294.372 138.177 295 130.447 295 126Z" fill="white"/>
<path d="M146.269 126C146.269 130.447 145.641 138.176 138.571 148.712C128.045 166.606 109.663 187.147 82.4827 211.341C59.4923 231.935 38.7538 247.288 37.8635 247.924L32.3647 252L0 207.265L5.44652 203.188C27.5466 186.829 62.844 157.5 82.1685 133.518C84.2633 130.5 84.4728 127.694 84.4728 126C84.4728 124.359 84.1585 121.606 82.1685 118.694C62.844 94.6589 27.599 65.2765 5.44652 48.8647L0 44.7882L32.417 0L37.9159 4.07649C41.6341 6.88238 61.0111 21.4412 82.5351 40.6588C109.558 64.8 127.94 85.2883 138.466 103.129C145.641 113.718 146.269 121.553 146.269 126Z" fill="white"/>
</g>
</svg>
