<svg width="76" height="57" viewBox="0 0 76 57" fill="none" xmlns="http://www.w3.org/2000/svg">
<g clip-path="url(#clip0_118_1527)">
<path d="M63.1327 50.3297C63.5903 49.6494 63.631 49.1502 63.631 48.8631C63.631 48.5759 63.5903 48.0699 63.1259 47.3862C62.4446 46.2341 61.2548 44.9111 59.5057 43.3521C58.1126 42.1111 56.8584 41.171 56.6177 40.9898L56.2618 40.7266L54.1636 43.6188L54.5161 43.882C55.9499 44.9418 58.2312 46.8392 59.482 48.3913C59.6108 48.5793 59.6311 48.7571 59.6311 48.8631C59.6311 48.9725 59.6176 49.1537 59.482 49.3485C58.2312 50.8972 55.9465 52.7912 54.5161 53.8475L54.1636 54.1108L56.2584 56.9996L56.6143 56.7363C56.6719 56.6953 58.0142 55.7039 59.5023 54.374C61.2616 52.8117 62.4513 51.4852 63.1327 50.3297ZM73.2576 48.8631C73.2576 48.5759 73.217 48.0699 72.7526 47.3862C72.0713 46.2341 70.8815 44.9111 69.1324 43.3521C67.7392 42.1111 66.4851 41.171 66.2444 40.9898L65.8885 40.7266L63.7903 43.6188L64.1428 43.882C65.5766 44.9418 67.8613 46.8392 69.1087 48.3913C69.2375 48.5793 69.2578 48.7571 69.2578 48.8631C69.2578 48.9725 69.2443 49.1537 69.1087 49.3485C67.8579 50.8972 65.5732 52.7912 64.1428 53.8475L63.7903 54.1108L65.8851 56.9996L66.241 56.7363C66.2986 56.6953 67.6409 55.7039 69.129 54.374C70.8849 52.8117 72.0746 51.4818 72.756 50.3263C73.217 49.6494 73.2576 49.1502 73.2576 48.8631Z" fill="white"/>
<path d="M26.3615 29.7019C27.2123 26.625 27.8225 23.5038 28.192 20.3449H22.0092C21.9414 22.0884 21.7448 23.9858 21.4228 26.0439C21.1008 28.0985 20.6499 30.1839 20.0737 32.3001H19.833L16.3077 20.697H11.9893L8.46403 32.3001H8.22336C7.64712 30.1873 7.1929 28.1019 6.85732 26.0439C6.52174 23.9892 6.33192 22.0884 6.28785 20.3449H0C0.369475 23.5038 0.972838 26.6216 1.81348 29.7019C2.65412 32.7787 3.67441 35.5615 4.87097 38.0469H11.23L14.0299 29.3019H14.2705L17.0331 38.0469H23.321C24.4972 35.5615 25.5107 32.7821 26.3615 29.7019ZM39.3406 31.1138C39.3406 31.9753 39.0389 32.683 38.4424 33.2402C37.8424 33.7975 37.0594 34.0778 36.0933 34.0778C34.9645 34.0778 34.3985 33.6026 34.3985 32.6488C34.3985 31.6505 35.1137 31.0796 36.5407 30.9429L39.3406 30.7001V31.1138ZM40.5812 38.0469H46.1776V37.7666C45.9234 37.2777 45.7234 36.6042 45.5742 35.7461C45.4251 34.888 45.3505 33.9684 45.3505 32.9941V27.5583C45.3505 22.4713 42.7608 19.9278 37.578 19.9278C35.3205 19.9278 33.1782 20.3449 31.1512 21.1825L30.2529 26.1293H30.4936C31.1613 25.7362 32.0596 25.4148 33.1884 25.1721C34.3171 24.9294 35.3883 24.8063 36.4018 24.8063C37.4153 24.8063 38.1576 24.9875 38.6288 25.3464C39.0999 25.7054 39.3372 26.2934 39.3372 27.1071V27.2814L35.0866 27.6643C30.7342 28.0609 28.558 29.907 28.558 33.206C28.558 34.7615 29.0428 36.0059 30.0088 36.9358C30.9749 37.8657 32.2901 38.3307 33.9476 38.3307C35.2832 38.3307 36.4696 38.0674 37.5068 37.5478C38.544 37.0247 39.2796 36.3239 39.7169 35.4384H39.9575C40.0287 36.3888 40.2389 37.2606 40.5812 38.0469ZM74.9661 11.2511C73.9052 10.7623 72.5595 10.5195 70.9223 10.5195C68.7122 10.5195 66.9597 11.2101 65.6716 12.5913C64.3802 13.9724 63.7361 15.8595 63.7361 18.2526V20.3449H56.3161V18.5672C56.3161 16.7313 57.0991 15.8151 58.6652 15.8151C59.2177 15.8151 59.7465 15.945 60.2549 16.198H60.4956L61.3261 11.2511C60.2651 10.7623 58.9194 10.5195 57.2856 10.5195C55.0755 10.5195 53.323 11.2101 52.035 12.5913C50.7435 13.9724 50.0995 15.8595 50.0995 18.2526V20.3449H46.9911V25.2234H50.0995V38.0469H56.3195V25.2234H63.7395V38.0469H69.9596V25.2234H73.3459L74.1424 20.3449H69.963V18.5672C69.963 16.7313 70.746 15.8151 72.312 15.8151C72.8645 15.8151 73.3933 15.945 73.9018 16.198H74.1424L74.9661 11.2511Z" fill="white"/>
</g>
<defs>
<clipPath id="clip0_118_1527">
<rect width="76" height="57" fill="white"/>
</clipPath>
</defs>
</svg>
